<?xml version="1.0" standalone="no"?>
<!DOCTYPE svg PUBLIC "-//W3C//DTD SVG 20010904//EN"
 "http://www.w3.org/TR/2001/REC-SVG-20010904/DTD/svg10.dtd">
<svg version="1.0" xmlns="http://www.w3.org/2000/svg"
 width="495.000000pt" height="495.000000pt" viewBox="0 0 495.000000 495.000000"
 preserveAspectRatio="xMidYMid meet">
<metadata>
Created by potrace 1.14, written by Peter Selinger 2001-2017
</metadata>
<g transform="translate(0.000000,495.000000) scale(0.100000,-0.100000)"
fill="#000000" stroke="none">
<path d="M1754 3240 c-37 -15 -54 -50 -54 -112 0 -78 26 -109 97 -115 62 -6
119 11 135 40 17 32 14 131 -5 160 -22 34 -118 49 -173 27z"/>
<path d="M739 3214 c-15 -3 -33 -13 -41 -22 -18 -20 -548 -1485 -548 -1512 0
-28 30 -40 102 -40 90 0 100 10 144 142 20 62 50 150 66 196 l30 82 323 0 323
0 16 -42 c9 -24 40 -112 71 -197 30 -85 59 -159 65 -165 6 -6 48 -12 93 -14
103 -4 124 7 109 59 -12 43 -516 1435 -532 1471 -7 15 -20 30 -29 33 -21 9
-158 15 -192 9z m210 -603 c72 -205 131 -375 131 -377 0 -2 -119 -4 -265 -4
-146 0 -265 3 -265 7 0 6 229 671 252 732 5 13 10 22 12 20 2 -2 63 -172 135
-378z"/>
<path d="M2352 3200 c-12 -5 -27 -21 -32 -36 -7 -17 -9 -283 -8 -751 l3 -725
25 -20 c24 -19 36 -20 305 -15 246 3 290 7 359 25 201 55 346 168 424 332 67
141 99 319 89 490 -23 370 -191 596 -507 680 -77 21 -112 23 -360 26 -162 2
-284 0 -298 -6z m573 -185 c179 -47 297 -173 352 -375 26 -97 23 -337 -6 -443
-28 -106 -74 -189 -137 -246 -104 -95 -191 -121 -436 -128 l-178 -6 0 606 0
606 43 4 c77 9 303 -3 362 -18z"/>
<path d="M3866 3189 l-26 -20 0 -740 c0 -726 0 -739 20 -759 19 -19 33 -20
425 -20 l405 0 10 26 c15 38 12 97 -6 122 -15 22 -16 22 -330 22 l-314 0 0
280 0 280 270 0 c307 0 290 -5 290 88 0 83 4 82 -298 82 l-262 0 0 238 0 239
167 6 c91 4 233 7 315 7 l148 0 10 26 c13 34 13 87 -2 119 l-11 25 -392 0
c-382 0 -393 -1 -419 -21z"/>
<path d="M1736 2784 c-14 -14 -16 -78 -16 -562 0 -318 4 -553 10 -562 12 -19
139 -27 169 -11 l21 12 0 559 c0 642 11 580 -104 580 -45 0 -69 -5 -80 -16z"/>
</g>
</svg>
